# Blender 3.3.0
# www.blender.org
mtllib desk.mtl
o Cube.150_Cube.178
v 1.044130 -0.345356 0.357906
v 1.042886 -0.222816 0.359150
v 1.044130 -0.345356 0.350304
v 1.042886 -0.222816 0.349059
v 1.051732 -0.345356 0.357906
v 1.052977 -0.222816 0.359150
v 1.051732 -0.345356 0.350304
v 1.052977 -0.222816 0.349059
v 1.042886 -0.284086 0.359150
v 1.042886 -0.284086 0.349059
v 1.052977 -0.284086 0.349059
v 1.052977 -0.284086 0.359150
v 0.895205 -0.345356 0.357906
v 0.893961 -0.222816 0.359150
v 0.895205 -0.345356 0.350304
v 0.893961 -0.222816 0.349059
v 0.902807 -0.345356 0.357906
v 0.904051 -0.222816 0.359150
v 0.902807 -0.345356 0.350304
v 0.904051 -0.222816 0.349059
v 0.893961 -0.284086 0.359150
v 0.893961 -0.284086 0.349059
v 0.904051 -0.284086 0.349059
v 0.904051 -0.284086 0.359150
v 0.895205 -0.345356 0.208758
v 0.893961 -0.222816 0.210003
v 0.895205 -0.345356 0.201156
v 0.893961 -0.222816 0.199912
v 0.902807 -0.345356 0.208758
v 0.904051 -0.222816 0.210003
v 0.902807 -0.345356 0.201156
v 0.904051 -0.222816 0.199912
v 0.893961 -0.284086 0.210003
v 0.893961 -0.284086 0.199912
v 0.904051 -0.284086 0.199912
v 0.904051 -0.284086 0.210003
v 1.044130 -0.345356 0.208758
v 1.042886 -0.222816 0.210003
v 1.044130 -0.345356 0.201156
v 1.042886 -0.222816 0.199912
v 1.051732 -0.345356 0.208758
v 1.052977 -0.222816 0.210003
v 1.051732 -0.345356 0.201156
v 1.052977 -0.222816 0.199912
v 1.042886 -0.284086 0.210003
v 1.042886 -0.284086 0.199912
v 1.052977 -0.284086 0.199912
v 1.052977 -0.284086 0.210003
v 0.881777 -0.225254 0.368072
v 0.881777 -0.214241 0.368072
v 0.881777 -0.225254 0.191597
v 0.881777 -0.214241 0.191597
v 1.065962 -0.225254 0.368072
v 1.065962 -0.214241 0.368072
v 1.065962 -0.225254 0.191597
v 1.065962 -0.214241 0.191597
v 0.893961 -0.238232 0.359150
v 0.904051 -0.238232 0.359150
v 0.904051 -0.238232 0.349059
v 0.893961 -0.238232 0.349059
v 0.893961 -0.238232 0.210003
v 0.893961 -0.238232 0.199912
v 0.904051 -0.238232 0.210003
v 0.904051 -0.238232 0.199912
v 1.042886 -0.238232 0.199912
v 1.052977 -0.238232 0.199912
v 1.052977 -0.238232 0.210003
v 1.042886 -0.238232 0.210003
v 1.042886 -0.238232 0.359150
v 1.042886 -0.238232 0.349059
v 1.052977 -0.238232 0.359150
v 1.052977 -0.238232 0.349059
vn -0.0000 -1.0000 -0.0000
vn -0.0000 -0.0203 0.9998
vn 0.9998 -0.0203 -0.0000
vn -0.0000 -0.0203 -0.9998
vn -0.9998 -0.0203 -0.0000
vn -0.0000 -0.0000 1.0000
vn 1.0000 -0.0000 -0.0000
vn -0.0000 -0.0000 -1.0000
vn -1.0000 -0.0000 -0.0000
vn -0.0000 1.0000 -0.0000
vt 0.125000 0.750000
vt 0.375000 1.000000
vt 0.375000 0.000000
vt 0.000000 0.000000
vt 0.125000 0.500000
vt 0.375000 0.250000
vt 0.000000 0.000000
vt 0.375000 0.750000
vt 0.000000 0.000000
vt 0.375000 0.500000
vt 0.000000 0.000000
vt 0.500000 1.000000
vt 0.500000 0.000000
vt 0.000000 0.000000
vt 0.500000 0.250000
vt 0.000000 0.000000
vt 0.500000 0.500000
vt 0.000000 0.000000
vt 0.500000 0.750000
vt 0.000000 0.000000
vt 0.125000 0.750000
vt 0.375000 1.000000
vt 0.375000 0.000000
vt 0.000000 0.000000
vt 0.875000 0.750000
vt 0.125000 0.500000
vt 0.375000 0.250000
vt 0.000000 0.000000
vt 0.375000 0.750000
vt 0.625000 0.750000
vt 0.000000 0.000000
vt 0.375000 0.500000
vt 0.000000 0.000000
vt 0.500000 0.000000
vt 0.500000 1.000000
vt 0.000000 0.000000
vt 0.500000 0.250000
vt 0.000000 0.000000
vt 0.500000 0.500000
vt 0.000000 0.000000
vt 0.500000 0.750000
vt 0.000000 0.000000
vt 0.125000 0.750000
vt 0.375000 1.000000
vt 0.375000 0.000000
vt 0.875000 0.750000
vt 0.125000 0.500000
vt 0.375000 0.250000
vt 0.000000 0.000000
vt 0.875000 0.500000
vt 0.375000 0.750000
vt 0.000000 0.000000
vt 0.375000 0.500000
vt 0.000000 0.000000
vt 0.500000 1.000000
vt 0.500000 0.000000
vt 0.000000 0.000000
vt 0.500000 0.250000
vt 0.000000 0.000000
vt 0.500000 0.500000
vt 0.000000 0.000000
vt 0.500000 0.750000
vt 0.000000 0.000000
vt 0.125000 0.750000
vt 0.375000 1.000000
vt 0.375000 0.000000
vt 0.000000 0.000000
vt 0.125000 0.500000
vt 0.375000 0.250000
vt 0.875000 0.500000
vt 0.375000 0.750000
vt 0.000000 0.000000
vt 0.375000 0.500000
vt 0.000000 0.000000
vt 0.625000 0.500000
vt 0.500000 1.000000
vt 0.500000 0.000000
vt 0.000000 0.000000
vt 0.500000 0.250000
vt 0.000000 0.000000
vt 0.500000 0.500000
vt 0.000000 0.000000
vt 0.500000 0.750000
vt 0.000000 0.000000
vt 0.375000 0.000000
vt 0.375000 1.000000
vt 0.125000 0.750000
vt 0.625000 0.000000
vt 0.625000 1.000000
vt 0.875000 0.750000
vt 0.375000 0.250000
vt 0.125000 0.500000
vt 0.625000 0.250000
vt 0.875000 0.500000
vt 0.375000 0.750000
vt 0.625000 0.750000
vt 0.375000 0.500000
vt 0.625000 0.500000
vt 0.000000 0.000000
vt 0.687500 0.875000
vt 0.562500 0.750000
vt 0.000000 0.000000
vt 0.000000 0.000000
vt 0.000000 0.000000
vt 0.687500 0.375000
vt 0.000000 0.000000
vt 0.000000 0.000000
vt 0.687500 0.375000
vt 0.000000 0.000000
vt 0.000000 0.000000
vt 0.687500 0.375000
vt 0.000000 0.000000
vt 0.000000 0.000000
vt 0.562500 0.500000
vt 0.000000 0.000000
vt 0.000000 0.000000
vt 0.687500 0.375000
vt 0.000000 0.000000
vt 0.687500 0.375000
vt 0.000000 0.000000
vt 0.000000 0.000000
vt 0.000000 0.000000
s 0
usemtl basic_2
f 3/5/1 7/10/1 5/8/1 1/1/1
f 5/8/2 12/19/2 9/12/2 1/2/2
f 7/10/3 11/17/3 12/19/3 5/8/3
f 3/6/4 10/15/4 11/17/4 7/10/4
f 1/3/5 9/13/5 10/15/5 3/6/5
f 15/26/1 19/32/1 17/29/1 13/21/1
f 17/29/2 24/41/2 21/35/2 13/22/2
f 19/32/3 23/39/3 24/41/3 17/29/3
f 15/27/4 22/37/4 23/39/4 19/32/4
f 13/23/5 21/34/5 22/37/5 15/27/5
f 27/47/1 31/53/1 29/51/1 25/43/1
f 29/51/2 36/62/2 33/55/2 25/44/2
f 31/53/3 35/60/3 36/62/3 29/51/3
f 27/48/4 34/58/4 35/60/4 31/53/4
f 25/45/5 33/56/5 34/58/5 27/48/5
f 57/100/6 21/35/6 24/41/6 58/101/6
f 39/68/1 43/73/1 41/71/1 37/64/1
f 41/71/2 48/83/2 45/76/2 37/65/2
f 43/73/3 47/81/3 48/83/3 41/71/3
f 39/69/4 46/79/4 47/81/4 43/73/4
f 37/66/5 45/77/5 46/79/5 39/69/5
f 59/103/7 58/102/7 24/42/7 23/40/7
f 60/104/8 59/103/8 23/40/8 22/38/8
f 57/99/9 60/104/9 22/38/9 21/36/9
f 62/108/9 34/58/9 33/56/9 61/105/9
f 63/109/6 61/106/6 33/57/6 36/63/6
f 64/110/7 63/109/7 36/63/7 35/61/7
f 62/107/8 64/110/8 35/61/8 34/59/8
f 66/114/8 47/81/8 46/79/8 65/111/8
f 67/115/7 66/113/7 44/74/7 42/72/7
f 70/119/9 10/15/9 9/13/9 69/117/9
f 71/121/6 69/118/6 9/14/6 12/20/6
f 72/122/7 71/121/7 12/20/7 11/18/7
f 70/120/8 72/122/8 11/18/8 10/16/8
f 14/24/9 16/28/9 60/104/9 57/99/9
f 14/25/6 57/100/6 58/101/6 18/30/6
f 28/49/8 32/54/8 64/110/8 62/107/8
f 58/102/1 59/103/1 70/120/1 69/118/1
f 28/50/9 62/108/9 61/105/9 26/46/9
f 46/80/9 45/78/9 68/116/9 65/112/9
f 45/78/6 48/84/6 67/115/6 68/116/6
f 48/84/7 47/82/7 66/113/7 67/115/7
f 44/75/8 66/114/8 65/111/8 40/70/8
f 26/46/9 61/105/9 60/104/9 16/28/9
f 8/11/7 6/9/7 71/121/7 72/122/7
f 6/9/6 2/4/6 69/118/6 71/121/6
f 4/7/8 70/120/8 59/103/8 20/33/8
f 61/106/1 63/109/1 59/103/1 60/104/1
f 20/33/7 59/103/7 63/109/7 30/52/7
f 72/122/7 67/115/7 42/72/7 8/11/7
f 68/116/1 67/115/1 72/122/1 70/120/1
f 38/67/9 68/116/9 70/120/9 4/7/9
f 18/31/6 58/102/6 69/118/6 2/4/6
f 64/110/8 32/54/8 40/70/8 65/111/8
f 63/109/1 64/110/1 65/112/1 68/116/1
f 30/52/6 63/109/6 68/116/6 38/67/6
usemtl basic_1
f 49/85/9 50/88/9 52/93/9 51/91/9
f 51/91/8 52/93/8 56/98/8 55/97/8
f 55/97/7 56/98/7 54/96/7 53/95/7
f 53/95/6 54/96/6 50/89/6 49/86/6
f 51/92/1 55/97/1 53/95/1 49/87/1
f 56/98/10 52/94/10 50/90/10 54/96/10
