# Blender 3.3.0
# www.blender.org
mtllib wall2.mtl
o Cube.120_Cube.148
v -1.037738 0.091943 0.001215
v -1.044738 0.091943 0.001215
v -1.037738 0.214435 0.001215
v -1.044738 0.214435 0.001215
v -1.037738 0.091943 -0.085212
v -1.044738 0.091943 -0.085212
v -1.044738 0.214435 -0.085212
v -0.936551 0.091943 0.001215
v -0.929551 0.091943 0.001215
v -0.936551 0.214435 0.001215
v -0.929551 0.214435 0.001215
v -0.936551 0.091943 -0.085212
v -0.929551 0.091943 -0.085212
v -0.929551 0.214435 -0.085212
v -1.037738 0.094277 0.001215
v -1.042616 0.094277 0.001215
v -1.037738 0.211673 0.001215
v -1.042616 0.211673 0.001215
v -1.037738 0.094277 -0.074514
v -1.042542 0.094277 -0.074077
v -1.037301 0.094277 -0.079318
v -1.041040 0.094277 -0.077817
v -1.037738 0.211673 -0.074514
v -1.037301 0.211673 -0.079318
v -1.042542 0.211673 -0.074077
v -1.041040 0.211673 -0.077817
v -0.936551 0.094277 0.001215
v -0.931673 0.094277 0.001215
v -0.936551 0.211673 0.001215
v -0.931673 0.211673 0.001215
v -0.936551 0.094277 -0.074514
v -0.936988 0.094277 -0.079318
v -0.931747 0.094277 -0.074077
v -0.933248 0.094277 -0.077817
v -0.936551 0.211673 -0.074514
v -0.931747 0.211673 -0.074077
v -0.936988 0.211673 -0.079318
v -0.933248 0.211673 -0.077817
v -1.037738 0.214435 -0.085196
v -0.936551 0.214435 -0.085196
v -1.044738 0.154895 0.001215
v -1.044738 0.151483 0.001215
v -1.044738 0.151483 -0.085212
v -1.044738 0.154895 -0.085212
v -0.929551 0.154895 -0.085212
v -0.929551 0.151483 -0.085212
v -0.929551 0.151483 0.001215
v -0.929551 0.154895 0.001215
v -1.042616 0.154806 0.001215
v -1.042616 0.151536 0.001215
v -1.037301 0.154806 -0.079318
v -1.037301 0.151536 -0.079318
v -1.041040 0.151536 -0.077817
v -1.041040 0.154806 -0.077817
v -1.042542 0.151536 -0.074077
v -1.042542 0.154806 -0.074077
v -0.931747 0.154806 -0.074077
v -0.931747 0.151536 -0.074077
v -0.933248 0.151536 -0.077817
v -0.933248 0.154806 -0.077817
v -0.936988 0.151536 -0.079318
v -0.936988 0.154806 -0.079318
v -0.931673 0.151536 0.001215
v -0.931673 0.154806 0.001215
v -1.037738 0.154895 -0.085201
v -1.037738 0.151483 -0.085206
v -0.936551 0.154895 -0.085201
v -0.936551 0.151483 -0.085206
vn 1.0000 -0.0000 -0.0000
vn -1.0000 -0.0000 -0.0000
vn -0.0000 -1.0000 -0.0000
vn -1.0000 -0.0000 0.0010
vn 1.0000 -0.0000 0.0010
vn -0.0000 -0.0000 1.0000
vn -0.0000 1.0000 -0.0000
vn 0.3725 -0.0000 0.9280
vn 0.9280 -0.0000 0.3727
vn -0.9280 -0.0000 0.3725
vn -0.3725 -0.0000 0.9280
vn -0.0000 0.0001 -1.0000
vn 0.0019 -0.0000 -1.0000
vn -0.0019 -0.0000 -1.0000
vn -0.0004 0.0001 -1.0000
vn -0.0012 0.0007 -1.0000
vn 0.0004 0.0001 -1.0000
vn 0.0012 0.0007 -1.0000
vn -0.0000 0.0015 -1.0000
vt 0.000000 0.000000
vt 0.140193 0.732574
vt 0.387172 0.017426
vt 0.859807 0.732574
vt 0.000000 0.000000
vt 0.612828 0.017426
vt 0.140193 0.517426
vt 0.387172 0.232574
vt 0.612828 0.232574
vt 0.000000 0.000000
vt 0.359807 0.732574
vt 0.387172 0.732574
vt 0.640193 0.732574
vt 0.000000 0.000000
vt 0.612828 0.732574
vt 0.359807 0.517426
vt 0.387172 0.517426
vt 0.612828 0.517426
vt 0.000000 0.000000
vt 0.140193 0.732574
vt 0.387172 0.017426
vt 0.000000 0.000000
vt 0.859807 0.732574
vt 0.612828 0.017426
vt 0.000000 0.000000
vt 0.140193 0.517426
vt 0.387172 0.232574
vt 0.387172 0.265193
vt 0.387172 0.250000
vt 0.859807 0.517426
vt 0.000000 0.000000
vt 0.612828 0.265193
vt 0.612828 0.232574
vt 0.612828 0.250000
vt 0.000000 0.000000
vt 0.359807 0.732574
vt 0.387172 0.732574
vt 0.000000 0.000000
vt 0.640193 0.732574
vt 0.612828 0.732574
vt 0.000000 0.000000
vt 0.359807 0.517426
vt 0.387172 0.484807
vt 0.387172 0.517426
vt 0.387172 0.500000
vt 0.640193 0.517426
vt 0.000000 0.000000
vt 0.612828 0.517426
vt 0.612828 0.484807
vt 0.612828 0.500000
vt 0.612828 0.265193
vt 0.000000 0.000000
vt 0.612828 0.484807
vt 0.000000 0.000000
vt 0.537609 0.017426
vt 0.462391 0.017426
vt 0.462391 0.232574
vt 0.537609 0.232574
vt 0.537609 0.517426
vt 0.462391 0.517426
vt 0.462391 0.732574
vt 0.537609 0.732574
vt 0.000000 0.000000
vt 0.537609 0.017426
vt 0.462391 0.017426
vt 0.000000 0.000000
vt 0.537609 0.265193
vt 0.000000 0.000000
vt 0.462391 0.265193
vt 0.000000 0.000000
vt 0.462391 0.250000
vt 0.000000 0.000000
vt 0.537609 0.250000
vt 0.000000 0.000000
vt 0.462391 0.232574
vt 0.000000 0.000000
vt 0.537609 0.232574
vt 0.000000 0.000000
vt 0.537609 0.517426
vt 0.000000 0.000000
vt 0.462391 0.517426
vt 0.000000 0.000000
vt 0.462391 0.500000
vt 0.000000 0.000000
vt 0.537609 0.500000
vt 0.000000 0.000000
vt 0.462391 0.484807
vt 0.000000 0.000000
vt 0.537609 0.484807
vt 0.000000 0.000000
vt 0.462391 0.732574
vt 0.000000 0.000000
vt 0.000000 0.000000
vt 0.537609 0.732574
vt 0.046731 0.172475
vt 0.093462 0.344950
vt 0.119936 0.172475
vt 0.528488 0.495680
vt 0.239871 0.344950
vt 0.444147 0.506553
s 0
usemtl basic_2
f 45/59/1 14/18/1 11/15/1 48/62/1
f 41/55/2 4/6/2 7/9/2 44/58/2
f 13/17/3 9/12/3 8/10/3 12/16/3
f 6/8/3 5/7/3 1/1/3 2/3/3
f 5/7/3 12/16/3 8/11/3 1/2/3
f 57/79/4 64/94/4 30/40/4 36/48/4
f 35/46/3 29/39/3 17/23/3 23/30/3
f 49/64/5 56/77/5 25/33/5 18/24/5
f 51/67/6 62/89/6 37/49/6 24/32/6
f 21/28/7 19/26/7 31/41/7 32/43/7
f 25/33/3 23/30/3 17/22/3 18/24/3
f 33/44/7 31/42/7 27/35/7 28/37/7
f 36/48/3 30/40/3 29/38/3 35/46/3
f 20/27/7 16/21/7 15/19/7 19/26/7
f 37/49/3 35/46/3 23/31/3 24/32/3
f 22/29/7 20/27/7 19/25/7 21/28/7
f 37/49/3 38/50/3 36/48/3 35/47/3
f 52/69/8 53/71/8 22/29/8 21/28/8
f 53/71/9 55/75/9 20/27/9 22/29/9
f 33/44/7 34/45/7 32/43/7 31/41/7
f 26/34/3 24/32/3 23/31/3 25/33/3
f 58/81/10 59/83/10 34/45/10 33/44/10
f 59/83/11 61/87/11 32/43/11 34/45/11
f 19/26/7 15/20/7 27/36/7 31/42/7
f 42/56/6 2/3/6 16/21/6 50/65/6
f 11/15/6 10/14/6 29/38/6 30/40/6
f 8/10/6 9/12/6 28/37/6 27/35/6
f 2/3/6 1/1/6 15/19/6 16/21/6
f 3/5/6 4/6/6 18/24/6 17/22/6
f 48/62/6 11/15/6 30/40/6 64/94/6
f 1/2/6 8/11/6 27/36/6 15/20/6
f 10/13/6 3/4/6 17/23/6 29/39/6
f 3/5/7 10/14/7 40/53/7 39/51/7
f 10/14/7 11/15/7 14/18/7 40/53/7
f 7/9/7 4/6/7 3/5/7 39/51/7
f 65/95/12 39/52/12 40/53/12 67/98/12
f 44/58/13 7/9/13 39/52/13 65/95/13
f 45/59/14 67/97/14 40/54/14 14/18/14
f 13/17/15 12/16/15 68/99/15 46/60/15
f 46/60/16 68/99/16 67/97/16 45/59/16
f 6/8/17 43/57/17 66/96/17 5/7/17
f 43/57/18 44/58/18 65/95/18 66/96/18
f 5/7/12 66/96/12 68/100/12 12/16/12
f 66/96/19 65/95/19 67/98/19 68/100/19
f 9/12/6 47/61/6 63/91/6 28/37/6
f 47/61/6 48/62/6 64/94/6 63/91/6
f 4/6/6 41/55/6 49/64/6 18/24/6
f 41/55/6 42/56/6 50/65/6 49/64/6
f 38/50/11 37/49/11 62/89/11 60/85/11
f 36/48/10 38/50/10 60/85/10 57/79/10
f 26/34/9 25/33/9 56/77/9 54/73/9
f 24/32/8 26/34/8 54/73/8 51/67/8
f 21/28/6 32/43/6 61/87/6 52/69/6
f 16/21/5 20/27/5 55/75/5 50/65/5
f 56/78/7 49/63/7 64/93/7 57/80/7
f 33/44/4 28/37/4 63/91/4 58/81/4
f 49/64/6 50/65/6 63/91/6 64/94/6
f 2/3/2 42/56/2 43/57/2 6/8/2
f 42/56/2 41/55/2 44/58/2 43/57/2
f 13/17/1 46/60/1 47/61/1 9/12/1
f 46/60/1 45/59/1 48/62/1 47/61/1
f 54/74/7 56/78/7 57/80/7 60/86/7
f 51/68/7 54/74/7 60/86/7 62/90/7
f 58/82/3 63/92/3 50/66/3 55/76/3
f 59/84/3 58/82/3 55/76/3 53/72/3
f 61/88/3 59/84/3 53/72/3 52/70/3
o Cube.121_Cube.149
v -1.037738 0.091943 0.000986
v -1.037738 0.091943 0.008215
v -1.044738 0.091943 0.000986
v -1.042687 0.091943 0.006165
v -1.037738 0.214008 0.008215
v -1.037738 0.214008 0.000986
v -1.044738 0.214008 0.000986
v -1.042687 0.214008 0.006165
v -0.936551 0.091943 0.000986
v -0.929551 0.091943 0.000986
v -0.936551 0.091943 0.008215
v -0.931602 0.091943 0.006165
v -0.936551 0.214008 0.000986
v -0.936551 0.214008 0.008215
v -0.929551 0.214008 0.000986
v -0.931602 0.214008 0.006165
v -1.037738 0.094115 0.000986
v -1.037301 0.094115 0.006020
v -1.042520 0.094115 0.000986
v -1.041040 0.094115 0.004518
v -1.037301 0.211836 0.006020
v -1.037738 0.211836 0.000986
v -1.042520 0.211836 0.000986
v -1.041040 0.211836 0.004518
v -0.936551 0.094115 0.000986
v -0.931769 0.094115 0.000986
v -0.936988 0.094115 0.006020
v -0.933248 0.094115 0.004518
v -0.936551 0.211836 0.000986
v -0.936988 0.211836 0.006020
v -0.931769 0.211836 0.000986
v -0.933248 0.211836 0.004518
v -0.943395 0.133754 0.012667
v -0.943395 0.135516 0.011868
v -0.943395 0.133754 0.007645
v -0.943395 0.136338 0.007645
v -0.940812 0.133754 0.012667
v -0.940812 0.135516 0.011868
v -0.940812 0.133754 0.007645
v -0.940812 0.136338 0.007645
v -0.943395 0.133754 0.010156
v -0.943395 0.136338 0.010156
v -0.940812 0.133754 0.010156
v -0.940812 0.136338 0.010156
v -0.943395 0.102923 0.011868
v -0.943395 0.104685 0.012667
v -0.943395 0.102102 0.007645
v -0.943395 0.104685 0.007645
v -0.940812 0.102923 0.011868
v -0.940812 0.104685 0.012667
v -0.940812 0.102102 0.007645
v -0.940812 0.104685 0.007645
v -0.943395 0.102102 0.010156
v -0.943395 0.104685 0.010156
v -0.940812 0.102102 0.010156
v -0.940812 0.104685 0.010156
vn -0.0000 -0.0000 1.0000
vn -0.0000 1.0000 -0.0000
vn -0.0000 -1.0000 -0.0000
vn -0.3827 -0.0000 0.9239
vn -0.9297 -0.0000 0.3682
vn 0.3827 -0.0000 0.9239
vn 0.9297 -0.0000 0.3682
vn -0.0000 -0.0000 -1.0000
vn 0.3728 -0.0000 -0.9279
vn 0.9223 -0.0000 -0.3865
vn -0.3727 -0.0000 -0.9280
vn -0.9224 -0.0000 -0.3863
vn -1.0000 -0.0000 -0.0000
vn 1.0000 -0.0000 -0.0000
vn -0.0000 0.4130 0.9107
vn -0.0000 0.9017 0.4324
vn -0.0000 -0.4130 0.9107
vn -0.0000 -0.9017 0.4324
vt 0.000000 0.000000
vt 0.387172 0.984807
vt 0.387172 0.017426
vt 0.387172 1.000000
vt 0.387172 0.000000
vt 0.612828 0.984807
vt 0.000000 0.000000
vt 0.612828 0.017426
vt 0.612828 1.000000
vt 0.612828 0.000000
vt 0.000000 0.000000
vt 0.359807 0.732574
vt 0.387172 0.732574
vt 0.387172 0.765193
vt 0.387172 0.750000
vt 0.000000 0.000000
vt 0.640193 0.732574
vt 0.612828 0.765193
vt 0.612828 0.732574
vt 0.612828 0.750000
vt 0.000000 0.000000
vt 0.387172 0.984807
vt 0.387172 0.017426
vt 0.387172 1.000000
vt 0.387172 0.000000
vt 0.612828 0.984807
vt 0.000000 0.000000
vt 0.612828 0.017426
vt 0.612828 1.000000
vt 0.612828 0.000000
vt 0.000000 0.000000
vt 0.359807 0.732574
vt 0.387172 0.732574
vt 0.387172 0.765193
vt 0.387172 0.750000
vt 0.000000 0.000000
vt 0.640193 0.732574
vt 0.612828 0.765193
vt 0.612828 0.732574
vt 0.612828 0.750000
vt 0.375000 1.000000
vt 0.375000 0.000000
vt 0.625000 1.000000
vt 0.875000 0.750000
vt 0.625000 0.000000
vt 0.375000 0.250000
vt 0.125000 0.500000
vt 0.625000 0.250000
vt 0.875000 0.500000
vt 0.375000 0.750000
vt 0.625000 0.750000
vt 0.375000 0.500000
vt 0.625000 0.500000
vt 0.125000 0.625000
vt 0.375000 0.125000
vt 0.875000 0.625000
vt 0.625000 0.125000
vt 0.375000 0.625000
vt 0.625000 0.625000
vt 0.375000 1.000000
vt 0.125000 0.750000
vt 0.375000 0.000000
vt 0.625000 1.000000
vt 0.625000 0.000000
vt 0.375000 0.250000
vt 0.125000 0.500000
vt 0.625000 0.250000
vt 0.875000 0.500000
vt 0.375000 0.750000
vt 0.625000 0.750000
vt 0.375000 0.500000
vt 0.625000 0.500000
vt 0.125000 0.625000
vt 0.375000 0.125000
vt 0.875000 0.625000
vt 0.625000 0.125000
vt 0.375000 0.625000
vt 0.625000 0.625000
s 0
usemtl basic_1
f 79/114/20 82/118/20 73/106/20 70/102/20
f 82/118/21 81/117/21 74/107/21 73/106/21
f 79/114/22 70/102/22 69/101/22 77/112/22
f 70/102/23 73/106/23 76/109/23 72/104/23
f 72/105/24 76/110/24 75/108/24 71/103/24
f 80/115/22 79/114/22 77/111/22 78/113/22
f 84/120/21 83/119/21 81/116/21 82/118/21
f 82/118/25 79/114/25 80/115/25 84/120/25
f 84/120/26 80/115/26 78/113/26 83/119/26
f 72/105/22 71/103/22 69/101/22 70/102/22
f 76/110/21 73/106/21 74/107/21 75/108/21
f 95/134/27 86/122/27 89/126/27 98/138/27
f 98/138/22 89/126/22 90/127/22 97/137/22
f 95/134/21 93/132/21 85/121/21 86/122/21
f 86/122/28 88/124/28 92/129/28 89/126/28
f 88/125/29 87/123/29 91/128/29 92/130/29
f 96/135/21 94/133/21 93/131/21 95/134/21
f 100/140/22 98/138/22 97/136/22 99/139/22
f 98/138/30 100/140/30 96/135/30 95/134/30
f 100/140/31 99/139/31 94/133/31 96/135/31
f 88/125/21 86/122/21 85/121/21 87/123/21
f 92/130/22 91/128/22 90/127/22 89/126/22
f 71/103/27 75/108/27 91/128/27 87/123/27
f 81/116/27 83/119/27 99/139/27 97/136/27
f 78/113/27 77/111/27 93/131/27 94/133/27
f 69/101/27 71/103/27 87/123/27 85/121/27
f 75/108/27 74/107/27 90/127/27 91/128/27
f 83/119/27 78/113/27 94/133/27 99/139/27
f 77/112/27 69/101/27 85/121/27 93/132/27
f 74/107/27 81/117/27 97/137/27 90/127/27
usemtl basic_2
f 109/155/32 110/157/32 104/148/32 103/146/32
f 103/146/27 104/148/27 108/153/27 107/152/27
f 111/158/33 112/159/33 106/151/33 105/150/33
f 105/150/34 106/151/34 102/143/34 101/141/34
f 111/158/27 124/178/27 122/175/27 109/155/27
f 112/159/35 110/156/35 102/144/35 106/151/35
f 108/153/21 104/149/21 110/156/21 112/159/21
f 103/147/22 107/152/22 111/158/22 109/154/22
f 107/152/33 108/153/33 112/159/33 111/158/33
f 101/142/32 102/145/32 110/157/32 109/155/32
f 121/174/32 122/176/32 116/167/32 115/165/32
f 115/165/27 116/167/27 120/172/27 119/171/27
f 123/177/33 124/178/33 118/170/33 117/169/33
f 117/169/36 118/170/36 114/163/36 113/160/36
f 121/173/37 123/177/37 117/169/37 113/161/37
f 109/155/32 122/176/32 114/164/32 101/142/32
f 120/172/21 116/168/21 122/175/21 124/178/21
f 115/166/22 119/171/22 123/177/22 121/173/22
f 119/171/33 120/172/33 124/178/33 123/177/33
f 113/162/32 114/164/32 122/176/32 121/174/32
f 105/150/33 118/170/33 124/178/33 111/158/33
f 101/142/20 114/164/20 118/170/20 105/150/20
