<svg width="24" height="24" viewBox="0 0 24 24" stroke-width="1" xmlns="http://www.w3.org/2000/svg">
    <path
        d="M3.73352 17.9364L11.7656 22.5737C11.9937 22.7049 12.2523 22.774 12.5156 22.774C12.7788 22.774 13.0374 22.7049 13.2656 22.5737L21.2977 17.9364C21.5254 17.8044 21.7145 17.6149 21.8461 17.387C21.9777 17.159 22.0472 16.9005 22.0477 16.6373V7.36276C22.0472 7.09954 21.9778 6.84104 21.8461 6.61309C21.7145 6.38513 21.5254 6.1957 21.2977 6.06371L13.2656 1.42641C13.0374 1.29516 12.7788 1.22607 12.5156 1.22607C12.2524 1.22607 11.9938 1.29516 11.7656 1.42641L3.73352 6.06371C3.50578 6.19569 3.31665 6.38512 3.18504 6.61308C3.05343 6.84104 2.98394 7.09954 2.98352 7.36276V16.6374C2.98394 16.9006 3.05343 17.1591 3.18504 17.387C3.31665 17.615 3.50578 17.8044 3.73352 17.9364ZM13.2656 3.15849L20.5476 7.36276V15.6774L13.2656 11.5614V3.15849ZM12.5132 12.8591L19.8798 17.0229L12.5157 21.2745L5.14896 17.0215L12.5132 12.8591ZM4.48352 7.36276L11.7656 3.15849V11.5585L4.48352 15.6746V7.36276Z"
    />
</svg>