<svg width="24" height="24" viewBox="0 0 24 24" fill="none" stroke-width="2"
    xmlns="http://www.w3.org/2000/svg">
    <path opacity="0.5"
        d="M20.062 7C20.1157 6.69354 20.1017 6.37903 20.0209 6.07857C19.9402 5.7781 19.7946 5.49895 19.5945 5.26071C19.3944 5.02248 19.1445 4.83093 18.8625 4.69951C18.5805 4.5681 18.2731 4.5 17.962 4.5H7.03801C6.72687 4.5 6.41951 4.5681 6.13749 4.69951C5.85548 4.83093 5.60564 5.02248 5.40552 5.26071C5.2054 5.49895 5.05985 5.7781 4.97909 6.07857C4.89832 6.37903 4.8843 6.69354 4.93801 7M18 4.5C18.028 4.24 18.043 4.111 18.043 4.004C18.0441 3.50969 17.8621 3.0325 17.5321 2.66446C17.2021 2.29643 16.7475 2.06364 16.256 2.011C16.15 2 16.02 2 15.76 2H9.24001C8.98001 2 8.84901 2 8.74301 2.011C8.25151 2.06364 7.79692 2.29643 7.46693 2.66446C7.13694 3.0325 6.95492 3.50969 6.95601 4.004C6.95601 4.111 6.97001 4.241 6.99901 4.5"
    />
    <path d="M15.5 18H9.5" stroke-linecap="round" />
    <path
        d="M2.88396 13.793C2.43696 10.629 2.21396 9.048 3.16196 8.023C4.10996 7 5.79796 7 9.17196 7H15.828C19.202 7 20.89 7 21.838 8.024C22.785 9.048 22.562 10.629 22.116 13.793L21.694 16.793C21.344 19.273 21.169 20.514 20.272 21.257C19.375 22 18.052 22 15.405 22H9.59496C6.94896 22 5.62496 22 4.72796 21.257C3.83096 20.514 3.65596 19.274 3.30596 16.793L2.88396 13.793Z"
    />
</svg>
    