<svg width="24" height="24" viewBox="0 0 24 24" fill="none" xmlns="http://www.w3.org/2000/svg">
    <path
        d="M14.5 12L10.5 8V11H2.5V13H10.5V16M20.5 18V6C20.5 5.46957 20.2893 4.96086 19.9142 4.58579C19.5391 4.21071 19.0304 4 18.5 4H6.5C5.96957 4 5.46086 4.21071 5.08579 4.58579C4.71071 4.96086 4.5 5.46957 4.5 6V9H6.5V6H18.5V18H6.5V15H4.5V18C4.5 18.5304 4.71071 19.0391 5.08579 19.4142C5.46086 19.7893 5.96957 20 6.5 20H18.5C19.0304 20 19.5391 19.7893 19.9142 19.4142C20.2893 19.0391 20.5 18.5304 20.5 18Z"
    />
</svg>
    