<svg width="24" height="24" viewBox="0 0 24 24" fill="none" xmlns="http://www.w3.org/2000/svg">
    <path
        d="M23.5 12L19.5 8V11H10.5V13H19.5V16M1.5 18V6C1.5 5.46957 1.71071 4.96086 2.08579 4.58579C2.46086 4.21071 2.96957 4 3.5 4H15.5C16.0304 4 16.5391 4.21071 16.9142 4.58579C17.2893 4.96086 17.5 5.46957 17.5 6V9H15.5V6H3.5V18H15.5V15H17.5V18C17.5 18.5304 17.2893 19.0391 16.9142 19.4142C16.5391 19.7893 16.0304 20 15.5 20H3.5C2.96957 20 2.46086 19.7893 2.08579 19.4142C1.71071 19.0391 1.5 18.5304 1.5 18Z"
    />
</svg>
    