<svg width="24" height="24" viewBox="0 0 24 24" xmlns="http://www.w3.org/2000/svg">
    <path d="M23 18H20V15H18.5V18H15.5V19.5H18.5V22.5H20V19.5H23V18Z"/>
    <path
        d="M12.5 21H6.5V3.00001H12.5V7.50001C12.5012 7.89747 12.6596 8.27831 12.9407 8.55936C13.2217 8.84041 13.6025 8.99882 14 9.00001H18.5V12H20V7.50001C20.0026 7.40144 19.9839 7.30347 19.9451 7.21284C19.9062 7.12221 19.8482 7.04107 19.775 6.97501L14.525 1.72501C14.459 1.65177 14.3778 1.59372 14.2872 1.55488C14.1966 1.51603 14.0986 1.49731 14 1.50001H6.5C6.10254 1.5012 5.7217 1.65961 5.44065 1.94066C5.1596 2.22171 5.00119 2.60255 5 3.00001V21C5.00119 21.3975 5.1596 21.7783 5.44065 22.0594C5.7217 22.3404 6.10254 22.4988 6.5 22.5H12.5V21ZM14 3.30001L18.2 7.50001H14V3.30001Z"
    />
</svg>
    