<svg width="24" height="24" viewBox="0 0 24 24" fill="none" stroke-width="2" xmlns="http://www.w3.org/2000/svg">
    <path
        d="M17.5 21H7.5M17.5 21H18.303C19.421 21 19.98 21 20.407 20.782C20.784 20.59 21.09 20.284 21.282 19.908C21.5 19.481 21.5 18.921 21.5 17.803V9.22C21.5 8.77 21.5 8.545 21.452 8.331C21.4094 8.14007 21.339 7.95643 21.243 7.786C21.137 7.596 20.987 7.431 20.693 7.104L17.938 4.042C17.597 3.664 17.424 3.472 17.217 3.334C17.0303 3.21012 16.8241 3.11851 16.607 3.063C16.363 3 16.1 3 15.575 3H6.7C5.58 3 5.02 3 4.592 3.218C4.21565 3.40969 3.90969 3.71565 3.718 4.092C3.5 4.52 3.5 5.08 3.5 6.2V17.8C3.5 18.92 3.5 19.48 3.718 19.907C3.91 20.284 4.215 20.59 4.592 20.782C5.019 21 5.579 21 6.697 21H7.5M17.5 21V17.197C17.5 16.079 17.5 15.519 17.282 15.092C17.0899 14.7156 16.7836 14.4096 16.407 14.218C15.98 14 15.42 14 14.3 14H10.7C9.58 14 9.02 14 8.592 14.218C8.21565 14.4097 7.90969 14.7157 7.718 15.092C7.5 15.52 7.5 16.08 7.5 17.2V21M15.5 7H9.5"
        stroke-linecap="round" stroke-linejoin="round" />
</svg>
    