<svg width="24" height="24" viewBox="0 0 24 24" xmlns="http://www.w3.org/2000/svg">
    <path fill-rule="evenodd" clip-rule="evenodd"
        d="M12.5 8.25C11.5054 8.25 10.5516 8.64509 9.84835 9.34835C9.14509 10.0516 8.75 11.0054 8.75 12C8.75 12.9946 9.14509 13.9484 9.84835 14.6517C10.5516 15.3549 11.5054 15.75 12.5 15.75C13.4946 15.75 14.4484 15.3549 15.1517 14.6517C15.8549 13.9484 16.25 12.9946 16.25 12C16.25 11.0054 15.8549 10.0516 15.1517 9.34835C14.4484 8.64509 13.4946 8.25 12.5 8.25ZM10.25 12C10.25 11.4033 10.4871 10.831 10.909 10.409C11.331 9.98705 11.9033 9.75 12.5 9.75C13.0967 9.75 13.669 9.98705 14.091 10.409C14.5129 10.831 14.75 11.4033 14.75 12C14.75 12.5967 14.5129 13.169 14.091 13.591C13.669 14.0129 13.0967 14.25 12.5 14.25C11.9033 14.25 11.331 14.0129 10.909 13.591C10.4871 13.169 10.25 12.5967 10.25 12Z"
    />
    <path fill-rule="evenodd" clip-rule="evenodd"
        d="M12.475 1.25C12.03 1.25 11.659 1.25 11.355 1.27C11.0443 1.28294 10.7378 1.34714 10.448 1.46C10.1143 1.59809 9.81099 1.80057 9.55551 2.05589C9.30002 2.3112 9.09733 2.61434 8.95902 2.948C8.81402 3.298 8.77502 3.668 8.75902 4.07C8.75742 4.21702 8.7185 4.36123 8.64591 4.48909C8.57332 4.61695 8.46944 4.72428 8.34402 4.801C8.2149 4.8715 8.06998 4.90803 7.92287 4.90716C7.77576 4.90628 7.63129 4.86803 7.50302 4.796C7.14702 4.608 6.80702 4.457 6.43102 4.407C6.07296 4.3599 5.70914 4.38379 5.36031 4.4773C5.01149 4.57081 4.6845 4.73212 4.39802 4.952C4.15579 5.14688 3.94733 5.38034 3.78102 5.643C3.61102 5.897 3.42502 6.218 3.20302 6.603L3.17802 6.647C2.95502 7.032 2.77002 7.353 2.63602 7.627C2.49602 7.913 2.38602 8.195 2.34602 8.507C2.25062 9.22999 2.4463 9.96127 2.89002 10.54C3.12102 10.841 3.42202 11.06 3.76202 11.274C3.88878 11.3489 3.99439 11.4549 4.06891 11.5819C4.14344 11.7089 4.18442 11.8528 4.18802 12C4.18442 12.1472 4.14344 12.2911 4.06891 12.4181C3.99439 12.5451 3.88878 12.6511 3.76202 12.726C3.42202 12.94 3.12202 13.159 2.89002 13.46C2.67014 13.7465 2.50883 14.0735 2.41532 14.4223C2.32181 14.7711 2.29792 15.1349 2.34502 15.493C2.38602 15.805 2.49502 16.087 2.63502 16.373C2.77002 16.647 2.95502 16.968 3.17802 17.353L3.20302 17.397C3.42502 17.782 3.61102 18.103 3.78102 18.357C3.95802 18.62 4.14802 18.857 4.39802 19.047C4.68443 19.2671 5.01138 19.4285 5.36021 19.5222C5.70903 19.6159 6.0729 19.64 6.43102 19.593C6.80702 19.543 7.14702 19.393 7.50302 19.204C7.63114 19.1321 7.77544 19.0939 7.92237 19.093C8.06931 19.0921 8.21405 19.1286 8.34302 19.199C8.46914 19.2751 8.57367 19.3823 8.64666 19.5102C8.71966 19.6382 8.75868 19.7827 8.76002 19.93C8.77502 20.332 8.81402 20.702 8.96002 21.052C9.09811 21.3857 9.30059 21.689 9.55591 21.9445C9.81122 22.2 10.1144 22.4027 10.448 22.541C10.738 22.661 11.038 22.708 11.355 22.729C11.659 22.75 12.03 22.75 12.475 22.75H12.525C12.97 22.75 13.341 22.75 13.645 22.73C13.963 22.708 14.262 22.661 14.552 22.54C14.8858 22.4019 15.189 22.1994 15.4445 21.9441C15.7 21.6888 15.9027 21.3857 16.041 21.052C16.186 20.702 16.225 20.332 16.241 19.93C16.2425 19.7828 16.2813 19.6384 16.3539 19.5103C16.4265 19.3823 16.5305 19.2748 16.656 19.198C16.7852 19.1276 16.9302 19.0913 17.0773 19.0923C17.2244 19.0934 17.3688 19.1318 17.497 19.204C17.853 19.392 18.193 19.543 18.569 19.592C19.292 19.6874 20.0233 19.4917 20.602 19.048C20.852 18.856 21.042 18.62 21.219 18.357C21.389 18.103 21.575 17.782 21.797 17.397L21.822 17.353C22.045 16.968 22.23 16.647 22.364 16.373C22.504 16.087 22.614 15.804 22.654 15.493C22.7494 14.77 22.5537 14.0387 22.11 13.46C21.879 13.159 21.578 12.94 21.238 12.726C21.1113 12.6511 21.0056 12.5451 20.9311 12.4181C20.8566 12.2911 20.8156 12.1472 20.812 12C20.812 11.722 20.964 11.446 21.238 11.274C21.578 11.06 21.878 10.841 22.11 10.54C22.3299 10.2535 22.4912 9.92653 22.5847 9.5777C22.6782 9.22888 22.7021 8.86506 22.655 8.507C22.6074 8.19971 22.5094 7.90238 22.365 7.627C22.1943 7.29475 22.0132 6.96792 21.822 6.647L21.797 6.603C21.6143 6.27709 21.4216 5.95693 21.219 5.643C21.0527 5.38062 20.8442 5.14749 20.602 4.953C20.3156 4.73294 19.9887 4.57146 19.6398 4.47778C19.291 4.38409 18.9271 4.36004 18.569 4.407C18.193 4.457 17.853 4.607 17.497 4.796C17.3689 4.86786 17.2246 4.90601 17.0777 4.90688C16.9307 4.90776 16.786 4.87132 16.657 4.801C16.5312 4.72452 16.4269 4.6173 16.354 4.48942C16.2811 4.36154 16.2418 4.21721 16.24 4.07C16.225 3.668 16.186 3.298 16.04 2.948C15.9019 2.61425 15.6994 2.31097 15.4441 2.05549C15.1888 1.8 14.8857 1.59731 14.552 1.459C14.262 1.339 13.962 1.292 13.645 1.271C13.341 1.25 12.97 1.25 12.525 1.25H12.475ZM11.022 2.845C11.099 2.813 11.216 2.784 11.457 2.767C11.704 2.75 12.024 2.75 12.5 2.75C12.976 2.75 13.296 2.75 13.543 2.767C13.784 2.784 13.901 2.813 13.978 2.845C14.285 2.972 14.528 3.215 14.655 3.522C14.695 3.618 14.728 3.769 14.741 4.126C14.771 4.918 15.18 5.681 15.906 6.1C16.632 6.52 17.497 6.492 18.198 6.122C18.514 5.955 18.661 5.908 18.765 5.895C19.0936 5.85158 19.4259 5.94043 19.689 6.142C19.755 6.193 19.839 6.28 19.974 6.48C20.113 6.686 20.273 6.963 20.511 7.375C20.749 7.787 20.908 8.065 21.017 8.287C21.124 8.504 21.157 8.62 21.167 8.703C21.2104 9.03157 21.1216 9.36392 20.92 9.627C20.856 9.71 20.742 9.814 20.44 10.004C19.768 10.426 19.312 11.162 19.312 12C19.312 12.838 19.768 13.574 20.44 13.996C20.742 14.186 20.856 14.29 20.92 14.373C21.122 14.636 21.21 14.968 21.167 15.297C21.157 15.38 21.123 15.497 21.017 15.713C20.908 15.936 20.749 16.213 20.511 16.625C20.273 17.037 20.112 17.314 19.974 17.52C19.839 17.72 19.755 17.807 19.689 17.858C19.4259 18.0596 19.0936 18.1484 18.765 18.105C18.661 18.092 18.515 18.045 18.198 17.878C17.498 17.508 16.632 17.48 15.906 17.899C15.18 18.319 14.771 19.082 14.741 19.874C14.728 20.231 14.695 20.382 14.655 20.478C14.5922 20.6298 14.5001 20.7677 14.3839 20.8839C14.2677 21.0001 14.1298 21.0922 13.978 21.155C13.901 21.187 13.784 21.216 13.543 21.233C13.296 21.25 12.976 21.25 12.5 21.25C12.024 21.25 11.704 21.25 11.457 21.233C11.216 21.216 11.099 21.187 11.022 21.155C10.8702 21.0922 10.7323 21.0001 10.6161 20.8839C10.5 20.7677 10.4078 20.6298 10.345 20.478C10.305 20.382 10.272 20.231 10.259 19.874C10.229 19.082 9.82002 18.319 9.09402 17.9C8.36802 17.48 7.50302 17.508 6.80202 17.878C6.48602 18.045 6.33902 18.092 6.23502 18.105C5.90645 18.1484 5.5741 18.0596 5.31102 17.858C5.24502 17.807 5.16102 17.72 5.02602 17.52C4.83793 17.2272 4.65885 16.9287 4.48902 16.625C4.25102 16.213 4.09202 15.935 3.98302 15.713C3.87602 15.496 3.84302 15.38 3.83302 15.297C3.7896 14.9684 3.87845 14.6361 4.08002 14.373C4.14402 14.29 4.25802 14.186 4.56002 13.996C5.23202 13.574 5.68802 12.838 5.68802 12C5.68802 11.162 5.23202 10.426 4.56002 10.004C4.25802 9.814 4.14402 9.71 4.08002 9.627C3.87845 9.36392 3.7896 9.03157 3.83302 8.703C3.84302 8.62 3.87702 8.503 3.98302 8.287C4.09202 8.064 4.25102 7.787 4.48902 7.375C4.72702 6.963 4.88802 6.686 5.02602 6.48C5.16102 6.28 5.24502 6.193 5.31102 6.142C5.5741 5.94043 5.90645 5.85158 6.23502 5.895C6.33902 5.908 6.48502 5.955 6.80202 6.122C7.50202 6.492 8.36802 6.52 9.09402 6.1C9.82002 5.681 10.229 4.918 10.259 4.126C10.272 3.769 10.305 3.618 10.345 3.522C10.472 3.215 10.715 2.972 11.022 2.845Z"
    />
</svg>
    