<svg width="24" height="24" viewBox="0 0 24 24" fill="none" xmlns="http://www.w3.org/2000/svg">
    <path
        d="M22.4999 7.99899C22.4998 7.82052 22.4518 7.64535 22.3611 7.49166C22.2703 7.33798 22.1401 7.21137 21.9839 7.12499L12.9619 2.12499C12.8137 2.04332 12.6472 2.00049 12.4779 2.00049C12.3087 2.00049 12.1422 2.04332 11.9939 2.12499L3.01594 7.08499C2.85998 7.17136 2.72994 7.29785 2.63929 7.45136C2.54864 7.60487 2.50067 7.77983 2.50037 7.95811C2.50006 8.13639 2.54742 8.31151 2.63754 8.46534C2.72767 8.61916 2.85727 8.7461 3.01294 8.83299L12.0349 13.873C12.1835 13.9564 12.3509 14.0004 12.5213 14.0005C12.6917 14.0007 12.8592 13.9571 13.0079 13.874L21.9859 8.87399C22.1419 8.78727 22.2718 8.6604 22.3622 8.50654C22.4526 8.35268 22.5001 8.17744 22.4999 7.99899ZM12.5229 11.854L5.55994 7.96499L12.4769 4.14299L19.4409 8.00199L12.5229 11.854Z"
    />
    <path
        d="M21.015 11.126L12.5 15.856L3.98504 11.126L3.01404 12.874L12.014 17.874C12.1626 17.9565 12.3296 17.9997 12.4995 17.9997C12.6694 17.9997 12.8365 17.9565 12.985 17.874L21.985 12.874L21.015 11.126Z"
    />
    <path
        d="M21.015 15.126L12.5 19.856L3.98504 15.126L3.01404 16.874L12.014 21.874C12.1626 21.9565 12.3296 21.9997 12.4995 21.9997C12.6694 21.9997 12.8365 21.9565 12.985 21.874L21.985 16.874L21.015 15.126Z"
    />
</svg>
    